# xmcd
#
# Track frame offsets: 
#        150
#        13202
#        27871
#        39260
#        50487
#        63136
#        75554
#        91018
#        105648
#        119869
#        133491
#        144612
#        156653
#        167590
#        182585
#        196971
#        209429
#        220749
#        234808
#        246609
#        256709
#        267968
#        281301
#        293286
#        305750
#        318437
#        332768
#        345400
#        360775
#        372150
#
# Disc length: 5150 seconds
#
# Revision: 0
# Processed by: cddbd v1.5.2PL0 Copyright (c) Steve Scherf et al.
# Submitted via: ExactAudioCopy v0.99pb4
#
DISCID=b8141c1e
DTITLE=The Dixon Brothers - A Blessing To People - Disc 2
DYEAR=2012
DGENRE=Country
TTITLE0=How Can A Broke Man Be Happy
TTITLE1=The School House Fire
TTITLE2=She Tickles Me
TTITLE3=Fisherman's Luck
TTITLE4=At Twilight Old Pal Of Yesterday
TTITLE5=Call Me Pal Of Mine
TTITLE6=I Won't Accept Anything For My Soul
TTITLE7=What Can I Give In Exchange
TTITLE8=What Would You Give In Exchange - Part 5
TTITLE9=The Girl I Left Behind In Danville
TTITLE10=Two Little Boys
TTITLE11=The Lonely Prisoner
TTITLE12=The Old Home Brew
TTITLE13=Always Waiting For You
TTITLE14=When Jesus Appears
TTITLE15=Satisfied At Last
TTITLE16=Shining City Over The River
TTITLE17=Honey It's Just Because
TTITLE18=Back To My Wyoming Home
TTITLE19=I Can't Tell Why I Love You
TTITLE20=Under The Old Cherry Tree
TTITLE21=Blessed Promise In Store
TTITLE22=Anywhere Is Home
TTITLE23=Beneath An Old Maple
TTITLE24=Fields On Fire
TTITLE25=The Blood Of Jesus Saved Me
TTITLE26=Where Shall I Be
TTITLE27=Promise In The Book Of Life
TTITLE28=Broken Hearted Girl
TTITLE29=Woman's Answer To 'What Is Home Without Love'
EXTD=
EXTT0=
EXTT1=
EXTT2=
EXTT3=
EXTT4=
EXTT5=
EXTT6=
EXTT7=
EXTT8=
EXTT9=
EXTT10=
EXTT11=
EXTT12=
EXTT13=
EXTT14=
EXTT15=
EXTT16=
EXTT17=
EXTT18=
EXTT19=
EXTT20=
EXTT21=
EXTT22=
EXTT23=
EXTT24=
EXTT25=
EXTT26=
EXTT27=
EXTT28=
EXTT29=
PLAYORDER=
